<svg width="182" height="182" viewBox="0 0 182 182" fill="none" xmlns="http://www.w3.org/2000/svg">
<rect x="25" y="25" width="137" height="134" fill="#F5F3F3"/>
<path fill-rule="evenodd" clip-rule="evenodd" d="M30.85 181.12H150.26C167.31 181.12 181.12 167.31 181.11 150.26V30.85C181.11 13.81 167.3 0 150.26 0H30.85C13.81 0 0 13.81 0 30.85V150.26C0 167.31 13.81 181.12 30.85 181.12ZM101.14 60.3292L101.25 60.33C104.275 60.35 107.299 60.3667 110.323 60.3834C117.888 60.4253 125.452 60.4671 133.01 60.56C135.84 60.59 137.78 59.47 139.19 57.03C139.649 56.2356 140.108 55.4409 140.566 54.6461C144.456 47.9066 148.351 41.1583 152.43 34.53C154.36 31.4 152.53 28.16 148.84 28.16C129.063 28.132 109.277 27.9819 89.4991 27.8319C88.096 27.8212 86.693 27.8106 85.29 27.8C82.59 27.78 80.71 28.82 79.35 31.16C77.3014 34.6856 75.2337 38.2007 73.1657 41.7163C70.2772 46.6268 67.3881 51.5381 64.55 56.48C63.16 58.89 61.38 59.99 58.56 59.94C51.5119 59.812 44.4573 59.7864 37.4014 59.7608C35.6377 59.7544 33.8739 59.748 32.11 59.74C28.41 59.72 26.76 62.5 28.58 65.7C29.9416 68.1016 31.3092 70.4993 32.6764 72.8965C35.6471 78.105 38.6164 83.3111 41.52 88.55C42.97 91.14 44.97 92.28 47.92 92.27C56.68 92.24 65.45 92.3 74.21 92.46C75.33 92.48 76.68 93 77.47 93.75C78.83 95.04 78.39 96.66 77.49 98.18C75.2971 101.89 73.1182 105.609 70.9397 109.327C68.6081 113.306 66.2771 117.285 63.93 121.25C62.62 123.47 62.62 125.57 63.91 127.78C65.7872 131 67.6294 134.244 69.4723 137.488C70.0445 138.496 70.6167 139.503 71.19 140.51C71.8317 141.634 72.4695 142.759 73.1074 143.885C74.5072 146.356 75.9074 148.827 77.35 151.28C78.64 153.48 81.23 153.99 82.96 152.41C83.5545 151.873 83.9835 151.134 84.3969 150.422L84.45 150.33C94.5055 133.188 104.551 116.045 114.597 98.9029L114.61 98.88C116.78 95.18 115.28 92.51 111.02 92.48C109.056 92.4666 107.092 92.4523 105.128 92.4379C98.2754 92.3878 91.4257 92.3377 84.57 92.33C82.11 92.32 80.43 91.34 79.22 89.18C76.3534 84.06 73.4423 78.9578 70.5312 73.8557C69.0757 71.3045 67.6201 68.7533 66.17 66.2C64.16 62.67 65.62 60.12 69.64 60.14C80.1433 60.1898 90.6367 60.2595 101.14 60.3292Z" fill="#18212D"/>
</svg>
