<svg width="798" height="182" viewBox="0 0 798 182" fill="none" xmlns="http://www.w3.org/2000/svg">
<g clip-path="url(#clip0_104_2209)">
<path fill-rule="evenodd" clip-rule="evenodd" d="M30.85 181.12H150.26C167.31 181.12 181.12 167.31 181.11 150.26V30.85C181.11 13.81 167.3 0 150.26 0H30.85C13.81 0 0 13.81 0 30.85V150.26C0 167.31 13.81 181.12 30.85 181.12ZM101.14 60.3292L101.25 60.33C104.275 60.35 107.299 60.3667 110.323 60.3834C117.888 60.4253 125.452 60.4671 133.01 60.56C135.84 60.59 137.78 59.47 139.19 57.03C139.649 56.2356 140.108 55.4409 140.566 54.6461C144.456 47.9066 148.351 41.1583 152.43 34.53C154.36 31.4 152.53 28.16 148.84 28.16C129.063 28.132 109.277 27.9819 89.4991 27.8319C88.096 27.8212 86.693 27.8106 85.29 27.8C82.59 27.78 80.71 28.82 79.35 31.16C77.3014 34.6856 75.2337 38.2007 73.1657 41.7163C70.2772 46.6268 67.3881 51.5381 64.55 56.48C63.16 58.89 61.38 59.99 58.56 59.94C51.5119 59.812 44.4573 59.7864 37.4014 59.7608C35.6377 59.7544 33.8739 59.748 32.11 59.74C28.41 59.72 26.76 62.5 28.58 65.7C29.9416 68.1016 31.3092 70.4993 32.6764 72.8965C35.6471 78.105 38.6164 83.3111 41.52 88.55C42.97 91.14 44.97 92.28 47.92 92.27C56.68 92.24 65.45 92.3 74.21 92.46C75.33 92.48 76.68 93 77.47 93.75C78.83 95.04 78.39 96.66 77.49 98.18C75.2971 101.89 73.1182 105.609 70.9397 109.327C68.6081 113.306 66.2771 117.285 63.93 121.25C62.62 123.47 62.62 125.57 63.91 127.78C65.7872 131 67.6294 134.244 69.4723 137.488C70.0445 138.496 70.6167 139.503 71.19 140.51C71.8317 141.634 72.4695 142.759 73.1074 143.885C74.5072 146.356 75.9074 148.827 77.35 151.28C78.64 153.48 81.23 153.99 82.96 152.41C83.5545 151.873 83.9835 151.134 84.3969 150.422L84.45 150.33C94.5055 133.188 104.551 116.045 114.597 98.9029L114.61 98.88C116.78 95.18 115.28 92.51 111.02 92.48C109.056 92.4666 107.092 92.4523 105.128 92.4379C98.2754 92.3878 91.4257 92.3377 84.57 92.33C82.11 92.32 80.43 91.34 79.22 89.18C76.3534 84.06 73.4423 78.9578 70.5312 73.8557C69.0757 71.3045 67.6201 68.7533 66.17 66.2C64.16 62.67 65.62 60.12 69.64 60.14C80.1433 60.1898 90.6367 60.2595 101.14 60.3292Z" fill="#18212D"/>
<path d="M218.72 118.98V50.62H262.37V60.09H230.43V80.11H256.51V89.39H230.43V118.98H218.72Z" fill="#18212D"/>
<path d="M292.55 120.15C287.86 120.15 283.65 119.06 279.9 116.88C276.16 114.7 273.23 111.67 271.11 107.8C268.99 103.93 267.94 99.4801 267.94 94.4701C267.94 89.3301 269.01 84.8201 271.16 80.9401C273.31 77.0701 276.25 74.0401 280 71.8601C283.74 69.6801 287.96 68.5901 292.65 68.5901C297.34 68.5901 301.55 69.6801 305.3 71.8601C309.04 74.0401 311.97 77.0501 314.09 80.8901C316.2 84.7301 317.26 89.2201 317.26 94.3701C317.26 99.5101 316.19 104.01 314.04 107.85C311.89 111.69 308.94 114.7 305.2 116.88C301.45 119.06 297.24 120.15 292.55 120.15ZM292.55 110.09C294.89 110.09 297.03 109.5 298.95 108.33C300.87 107.16 302.42 105.4 303.59 103.06C304.76 100.72 305.35 97.8201 305.35 94.3701C305.35 90.9201 304.78 88.0401 303.64 85.7301C302.5 83.4201 300.97 81.6801 299.05 80.5101C297.13 79.3401 295 78.7501 292.65 78.7501C290.37 78.7501 288.26 79.3401 286.3 80.5101C284.35 81.6801 282.78 83.4201 281.61 85.7301C280.44 88.0401 279.85 90.9201 279.85 94.3701C279.85 97.8201 280.44 100.72 281.61 103.06C282.78 105.4 284.33 107.16 286.25 108.33C288.17 109.51 290.27 110.09 292.55 110.09Z" fill="#18212D"/>
<path d="M328.69 118.98V69.7601H339.14L340.21 78.9401C341.38 76.7901 342.85 74.9501 344.6 73.4201C346.36 71.8901 348.42 70.7001 350.8 69.8601C353.18 69.0101 355.8 68.5901 358.66 68.5901V80.9901H354.56C352.61 80.9901 350.75 81.2301 348.99 81.7201C347.23 82.2101 345.72 82.9901 344.45 84.0601C343.18 85.1301 342.19 86.6001 341.47 88.4601C340.75 90.3201 340.4 92.6401 340.4 95.4401V118.98H328.69Z" fill="#18212D"/>
<path d="M389.43 120.15C384.55 120.15 380.25 119.09 376.54 116.98C372.83 114.86 369.93 111.89 367.85 108.04C365.77 104.2 364.73 99.7701 364.73 94.7601C364.73 89.5501 365.76 84.9901 367.81 81.0901C369.86 77.1801 372.76 74.1201 376.5 71.9101C380.24 69.7001 384.59 68.5901 389.54 68.5901C394.36 68.5901 398.56 69.6601 402.14 71.8101C405.72 73.9601 408.49 76.8401 410.44 80.4501C412.39 84.0601 413.37 88.1201 413.37 92.6101C413.37 93.2601 413.37 93.9801 413.37 94.7601C413.37 95.5401 413.3 96.3601 413.17 97.2001H373.13V89.6801H401.55C401.42 86.1001 400.22 83.2801 397.94 81.2301C395.66 79.1801 392.83 78.1501 389.44 78.1501C387.03 78.1501 384.82 78.7001 382.8 79.8101C380.78 80.9201 379.19 82.5601 378.01 84.7401C376.84 86.9201 376.25 89.6701 376.25 92.9901V95.8201C376.25 98.8801 376.82 101.52 377.96 103.73C379.1 105.94 380.66 107.62 382.65 108.76C384.64 109.9 386.86 110.47 389.34 110.47C392.07 110.47 394.34 109.88 396.13 108.71C397.92 107.54 399.24 105.98 400.09 104.02H412.01C411.1 107.08 409.6 109.83 407.52 112.27C405.44 114.71 402.86 116.63 399.8 118.03C396.72 119.45 393.27 120.15 389.43 120.15Z" fill="#18212D"/>
<path d="M443.83 120.15C439.47 120.15 435.68 119.45 432.45 118.05C429.22 116.65 426.69 114.7 424.83 112.19C422.97 109.68 421.88 106.8 421.56 103.55H433.28C433.61 104.92 434.19 106.17 435.04 107.31C435.89 108.45 437.04 109.35 438.51 110C439.97 110.65 441.72 110.98 443.73 110.98C445.68 110.98 447.28 110.7 448.52 110.15C449.76 109.6 450.67 108.87 451.25 107.95C451.84 107.04 452.13 106.06 452.13 105.02C452.13 103.46 451.71 102.25 450.86 101.41C450.01 100.56 448.79 99.9001 447.2 99.4101C445.6 98.9201 443.7 98.4501 441.49 97.9901C439.15 97.5301 436.88 96.9601 434.7 96.2801C432.52 95.6001 430.56 94.7301 428.84 93.6901C427.11 92.6501 425.75 91.3101 424.74 89.6901C423.73 88.0601 423.23 86.0801 423.23 83.7301C423.23 80.8701 423.99 78.2901 425.52 76.0101C427.05 73.7301 429.26 71.9301 432.16 70.5901C435.06 69.2601 438.52 68.5901 442.56 68.5901C448.29 68.5901 452.86 69.9101 456.28 72.5501C459.7 75.1901 461.7 78.8801 462.29 83.6301H451.16C450.83 81.8101 449.92 80.3901 448.43 79.3801C446.93 78.3701 444.95 77.8701 442.47 77.8701C439.93 77.8701 437.99 78.3401 436.66 79.2901C435.33 80.2301 434.66 81.4901 434.66 83.0501C434.66 84.0901 435.07 85.0001 435.88 85.7801C436.69 86.5601 437.88 87.2301 439.44 87.7801C441 88.3301 442.92 88.8701 445.2 89.3901C448.85 90.1101 452.07 90.9501 454.87 91.9301C457.67 92.9101 459.88 94.3401 461.51 96.2301C463.14 98.1201 463.95 100.79 463.95 104.24C464.01 107.37 463.22 110.13 461.56 112.54C459.9 114.95 457.57 116.82 454.58 118.16C451.58 119.48 447.99 120.15 443.83 120.15Z" fill="#18212D"/>
<path d="M481.62 61.9401C479.47 61.9401 477.7 61.2701 476.3 59.9401C474.9 58.6101 474.2 56.9601 474.2 55.0101C474.2 52.9901 474.9 51.3501 476.3 50.0801C477.7 48.8101 479.47 48.1801 481.62 48.1801C483.77 48.1801 485.54 48.8101 486.94 50.0801C488.34 51.3501 489.04 52.9901 489.04 55.0101C489.04 56.9601 488.34 58.6101 486.94 59.9401C485.55 61.2801 483.77 61.9401 481.62 61.9401ZM475.76 118.98V69.7601H487.48V118.98H475.76Z" fill="#18212D"/>
<path d="M521.76 141.64C517.14 141.64 513.08 141.07 509.6 139.93C506.12 138.79 503.41 137.06 501.49 134.75C499.57 132.44 498.61 129.56 498.61 126.11C498.61 124.09 499.11 122.12 500.12 120.2C501.13 118.28 502.66 116.49 504.71 114.83C506.76 113.17 509.38 111.72 512.57 110.48L517.75 116.14C514.63 117.25 512.44 118.58 511.21 120.14C509.97 121.7 509.35 123.3 509.35 124.93C509.35 126.62 509.89 128.04 510.96 129.18C512.03 130.32 513.5 131.18 515.35 131.77C517.2 132.36 519.31 132.65 521.65 132.65C523.93 132.65 525.91 132.34 527.61 131.72C529.3 131.1 530.62 130.24 531.57 129.13C532.51 128.02 532.99 126.69 532.99 125.13C532.99 123.18 532.31 121.6 530.94 120.39C529.57 119.18 526.87 118.45 522.83 118.19C519.38 117.93 516.35 117.56 513.75 117.07C511.15 116.58 508.92 116.01 507.06 115.36C505.2 114.71 503.62 113.98 502.32 113.16C501.02 112.35 499.94 111.52 499.1 110.67V108.42L509.35 97.6801L518.04 100.51L506.52 111.74L509.55 106.08C510.2 106.54 510.87 106.96 511.55 107.35C512.23 107.74 513.11 108.08 514.19 108.38C515.27 108.68 516.68 108.95 518.44 109.21C520.2 109.47 522.48 109.73 525.28 109.99C529.64 110.32 533.19 111.1 535.92 112.33C538.65 113.57 540.67 115.23 541.98 117.31C543.28 119.39 543.93 121.9 543.93 124.83C543.93 127.69 543.13 130.4 541.54 132.94C539.94 135.48 537.52 137.56 534.26 139.19C531.01 140.82 526.84 141.64 521.76 141.64ZM521.76 104.23C517.66 104.23 514.13 103.43 511.16 101.84C508.2 100.25 505.94 98.1001 504.37 95.3901C502.81 92.6901 502.03 89.7101 502.03 86.4501C502.03 83.1301 502.81 80.1401 504.37 77.4701C505.93 74.8001 508.19 72.6501 511.16 71.0201C514.12 69.3901 517.65 68.5801 521.76 68.5801C525.86 68.5801 529.38 69.3901 532.31 71.0201C535.24 72.6501 537.49 74.8001 539.05 77.4701C540.61 80.1401 541.39 83.1301 541.39 86.4501C541.39 89.7101 540.61 92.6901 539.05 95.3901C537.49 98.0901 535.24 100.24 532.31 101.84C529.38 103.44 525.86 104.23 521.76 104.23ZM521.76 95.1501C524.56 95.1501 526.8 94.4001 528.5 92.9001C530.19 91.4001 531.04 89.2501 531.04 86.4501C531.04 83.6501 530.19 81.5201 528.5 80.0501C526.81 78.5901 524.56 77.8501 521.76 77.8501C518.96 77.8501 516.68 78.5801 514.92 80.0501C513.16 81.5201 512.28 83.6501 512.28 86.4501C512.28 89.2501 513.16 91.4001 514.92 92.9001C516.68 94.4001 518.96 95.1501 521.76 95.1501ZM529.87 78.3501L527.62 69.7601H547.84V77.1801L529.87 78.3501Z" fill="#18212D"/>
<path d="M558.19 118.98V48.66H569.91V77.37C571.54 74.7 573.75 72.57 576.55 70.97C579.35 69.38 582.51 68.58 586.02 68.58C590.06 68.58 593.47 69.41 596.27 71.07C599.07 72.73 601.2 75.17 602.67 78.39C604.13 81.61 604.87 85.63 604.87 90.45V118.97H593.25V91.54C593.25 87.31 592.35 84.09 590.56 81.87C588.77 79.66 586.05 78.55 582.41 78.55C580.07 78.55 577.95 79.12 576.06 80.26C574.17 81.4 572.67 83.03 571.57 85.14C570.46 87.26 569.91 89.84 569.91 92.9V118.98H558.19Z" fill="#18212D"/>
<path d="M638.66 118.98C635.34 118.98 632.46 118.46 630.02 117.42C627.58 116.38 625.67 114.65 624.31 112.24C622.94 109.83 622.26 106.58 622.26 102.47V79.62H613.86V69.76H622.26L623.63 56.77H633.98V69.76H647.36V79.62H633.98V102.47C633.98 104.95 634.52 106.65 635.59 107.6C636.66 108.54 638.47 109.02 641.01 109.02H647.06V118.98H638.66Z" fill="#18212D"/>
<path d="M654.29 118.98L679.29 50.62H692.38L717.38 118.98H704.98L685.74 64.29L666.5 118.98H654.29ZM665.42 102.86L668.54 93.58H702.23L705.35 102.86H665.42Z" fill="#18212D"/>
<path d="M726.75 118.98V50.62H751.36C756.83 50.62 761.35 51.55 764.94 53.4C768.52 55.26 771.19 57.75 772.95 60.87C774.71 63.99 775.59 67.58 775.59 71.61C775.59 75.39 774.74 78.85 773.05 82.01C771.36 85.17 768.72 87.71 765.14 89.63C761.56 91.55 756.97 92.51 751.37 92.51H738.48V118.98H726.75ZM738.47 82.94H750.68C755.3 82.94 758.62 81.91 760.64 79.86C762.66 77.81 763.67 75.06 763.67 71.61C763.67 68.03 762.66 65.23 760.64 63.21C758.62 61.19 755.3 60.18 750.68 60.18H738.47V82.94Z" fill="#18212D"/>
<path d="M785.74 118.98V50.62H797.46V118.98H785.74Z" fill="#18212D"/>
</g>
<defs>
<clipPath id="clip0_104_2209">
<rect width="797.46" height="181.12" fill="white"/>
</clipPath>
</defs>
</svg>
